<svg xmlns="http://www.w3.org/2000/svg" viewBox="0 0 24 24" fill="currentColor">
  <path d="M6.938 4.503c.702 0 1.34.06 1.92.188.577.13 1.07.33 1.485.61.41.28.733.65.96 1.12.225.47.34 1.05.34 1.73 0 .74-.17 1.36-.507 1.86-.338.5-.837.9-1.502 1.22.906.26 1.576.72 2.022 1.37.448.66.665 1.45.665 2.36 0 .75-.13 1.39-.41 1.93-.28.55-.67 1-.16 1.36-.49.36-1.06.63-1.7.8-.64.17-1.3.25-2.02.25H0V4.5h6.938v.003zM3.952 9.32h2.545c.588 0 1.063-.13 1.42-.39.36-.26.54-.66.54-1.22 0-.29-.05-.53-.15-.73a1.26 1.26 0 0 0-.42-.47 1.92 1.92 0 0 0-.63-.27 3.36 3.36 0 0 0-.79-.09H3.952V9.32zm0 5.52h2.95c.28 0 .55-.03.81-.07.26-.05.49-.13.69-.26.2-.12.36-.29.48-.51.12-.23.18-.52.18-.87 0-.69-.19-1.18-.57-1.47-.38-.29-.89-.43-1.53-.43H3.953v3.61zM22.498 11.48c-.188-1.13-.592-1.98-1.218-2.54-.624-.56-1.476-.84-2.56-.84-.68 0-1.27.12-1.78.35-.51.24-.94.56-1.29.97-.35.41-.61.89-.78 1.43-.18.55-.26 1.12-.26 1.72 0 .63.08 1.22.24 1.76.16.54.41 1.01.75 1.41.33.39.76.7 1.28.92.52.22 1.13.33 1.82.33.96 0 1.75-.22 2.37-.66.62-.44 1.02-1.15 1.2-2.12h-1.95c-.1.41-.3.72-.6.93-.3.2-.67.31-1.1.31-.59 0-1.04-.17-1.36-.5-.32-.33-.5-.87-.53-1.61h5.61c.01-.06.01-.14.01-.26.01-.12.01-.23.01-.32.002-.26-.018-.54-.058-.82zM17.28 9.99c.16-.31.44-.56.84-.76.4-.2.83-.29 1.31-.26.48.02.87.13 1.17.33.3.2.52.44.66.73.14.28.21.55.22.79h-4.47c.08-.28.14-.53.27-.83zM24 7.41h-5.85v1.18H24V7.41z"/>
</svg>
